<?xml version="1.0" encoding="UTF-8" standalone="no"?>
<svg
   version="1.1"
   width="512"
   height="256"
   id="svg3"
   sodipodi:docname="driveit.svg"
   inkscape:version="1.3.2 (091e20e, 2023-11-25, custom)"
   xmlns:inkscape="http://www.inkscape.org/namespaces/inkscape"
   xmlns:sodipodi="http://sodipodi.sourceforge.net/DTD/sodipodi-0.dtd"
   xmlns="http://www.w3.org/2000/svg"
   xmlns:svg="http://www.w3.org/2000/svg">
  <sodipodi:namedview
     id="namedview3"
     pagecolor="#ffffff"
     bordercolor="#000000"
     borderopacity="0.25"
     inkscape:showpageshadow="2"
     inkscape:pageopacity="0.0"
     inkscape:pagecheckerboard="0"
     inkscape:deskcolor="#d1d1d1"
     showguides="true"
     inkscape:zoom="2.0294118"
     inkscape:cx="287.76811"
     inkscape:cy="105.69565"
     inkscape:window-width="2560"
     inkscape:window-height="1369"
     inkscape:window-x="-8"
     inkscape:window-y="-8"
     inkscape:window-maximized="1"
     inkscape:current-layer="svg3" />
  <defs
     id="defs1">
    <mask
       id="window">
      <rect
         width="100%"
         height="100%"
         fill="#ffffff"
         id="rect1"
         x="0"
         y="0" />
      <path
         fill-rule="evenodd"
         clip-rule="evenodd"
         fill="#000000"
         d="m 143.481,92.794 29.039,0.023 -6.328,-16.923 c -0.422,-1.709 -1.72,-2.566 -3.204,-2.566 l -20.453,0.009 -20.45,-0.009 c -1.482,0 -2.778,0.857 -3.199,2.566 l -6.328,16.923 5.455,-0.004 c 0.019,-0.005 -0.206,-4.89 2.838,-4.89 h 19.781 c 2.987,0 2.835,4.871 2.849,4.871"
         id="path1" />
    </mask>
  </defs>
  <g
     id="car"
     inkscape:label="#car"
     transform="rotate(26.166578,84.078441,153.24179)">
    <path
       fill-rule="evenodd"
       clip-rule="evenodd"
       mask="url(#window)"
       d="m 167.65455,138.69014 -0.0436,-10.65714 -25.076,-0.009 -25.064,0.009 c 0,3.068 -0.0305,7.9334 -0.0111,10.64547 -0.004,1.80915 -0.42196,1.86935 -6.60939,1.82324 -6.18743,-0.0461 -6.99983,0.0197 -7.00411,-1.83351 0.006,-1.48258 0.038,-8.92977 0.028,-10.69977 -0.83152,-0.008 -6.4744,0.0556 -7.5264,0.0556 v -25.19 c 0,-4.53 3.464,-9.265 8.183,-10.052 l 8.71,-20.704 c 1.354,-3.41 5.335,-5.546 9.129,-5.546 h 40.339 c 3.794,0 7.775,2.136 9.124,5.546 l 8.713,20.704 c 4.712,0.787 8.183,5.522 8.183,10.052 v 25.19 h -7.513 l -0.038,10.825 c 0.0206,1.7158 -1.22168,1.83275 -6.39686,1.82037 -5.17518,-0.0124 -7.16814,-0.1428 -7.12659,-1.97923 z"
       id="path2"
       sodipodi:nodetypes="ccccczcccsccssccsccczc"
       transform="translate(-81.304348,-46.565217)" />
    <path
       fill-rule="evenodd"
       clip-rule="evenodd"
       d="m 49.691652,27.956783 c 2.853,0 5.181,2.754 5.181,6.126 0,3.372 -2.328,6.117 -5.181,6.117 -2.855,0 -5.181,-2.745 -5.181,-6.117 0,-3.372 2.326,-6.126 5.181,-6.126"
       id="path3" />
  </g>
  <g
     id="logo-D"
     inkscape:label="#logod"
     transform="translate(22.666666,-1.4782609)">
    <path
       style="fill:#000000"
       id="path13"
       d="m 91.870795,102.54207 c 1.852136,1.17004 2.399573,2.50031 4.296054,3.59575 1.991327,1.22197 3.877561,2.60653 5.780751,3.95951 1.77363,1.17008 3.19734,2.75288 4.64386,4.28785 1.48102,1.78273 2.95977,3.62242 3.91927,5.75313 0.25071,0.55675 0.43626,1.1406 0.65439,1.7109 0.17464,0.74675 0.52163,1.98586 0.49314,4.30366 -0.0901,3.61129 -1.20771,6.71003 -2.07809,8.61218 -1.33532,2.91822 -3.26857,5.70757 -5.29999,8.19202 -8.65188,10.58133 -17.085311,14.91965 -28.604546,22.89645 -38.2908,21.02459 -38.045096,21.48437 -56.7004,32.91397 -8.137237,4.86603 43.305527,8.102 48.229141,4.8008 0,0 -3.439308,-2.45263 0,0 10.337859,-7.09448 27.879079,-19.59676 44.186015,-34.66335 3.92158,-4.51632 8.30325,-8.67105 11.76475,-13.54896 5.70915,-8.04528 9.05991,-17.37935 7.59143,-27.24171 -0.38504,-2.58597 -1.4143,-4.68328 -2.42322,-6.99528 -0.32003,-0.61776 -0.62198,-1.24522 -0.96008,-1.85328 -1.22288,-2.19927 -2.76387,-4.2226 -4.42131,-6.10865 -1.50602,-1.63681 -3.09041,-3.1915 -4.8782,-4.52377 -1.76417,-1.5325 -3.61957,-2.93255 -5.61253,-4.15813 -2.04693,-1.35129 -5.03237,-3.00245 -7.31844,-3.90752 z"
       sodipodi:nodetypes="ccccsccsscccccsscsccccc" />
    <path
       style="fill:#000000"
       id="path14"
       d="m 41.039439,106.20433 c 0.420617,1.21893 1.702245,5.45739 1.709963,7.87003 0.0094,2.9435 -0.652322,5.74444 -2.386782,8.25771 -1.152271,1.66966 -3.383879,4.19715 -4.574312,5.71585 -1.946593,2.53612 -4.201157,4.76426 -6.394127,7.17718 -2.646258,2.81004 -5.331527,5.58384 -7.938774,8.43011 -2.625571,2.86628 -11.9470495,9.37992 -13.7944301,10.61533 -4.9777492,2.92579 31.3524211,2.06153 33.2111771,0.0178 v 0 c 5.285342,-5.93625 9.315438,-10.75933 13.148299,-17.62387 1.404391,-2.51522 2.450603,-4.53333 3.378886,-7.18872 0.853399,-2.44119 1.246419,-4.65952 1.568642,-6.67548 0.82449,-5.15837 -0.06293,-10.57347 -2.56636,-15.15501 -0.315778,-0.5779 -0.730793,-1.09576 -1.09619,-1.64365 -0.868511,-1.0914 -14.686609,-1.01621 -14.265992,0.20272 z"
       sodipodi:nodetypes="zssccsccssssscz" />
  </g>
  <g
     id="logo-text"
     inkscape:label="#logotext"
     transform="translate(22.666666,-1.4782609)">
    <text
       xml:space="preserve"
       style="font-style:normal;font-variant:normal;font-weight:normal;font-stretch:normal;font-size:146.667px;font-family:Arial;-inkscape-font-specification:Arial;fill:#000000"
       x="129.10144"
       y="186.50723"
       id="text14"><tspan
         sodipodi:role="line"
         id="tspan14"
         x="129.10144"
         y="186.50723"
         style="font-style:italic;font-variant:normal;font-weight:normal;font-stretch:normal;font-size:146.667px;font-family:Calibri;-inkscape-font-specification:'Calibri Italic'">rive<tspan
   style="font-style:italic;font-variant:normal;font-weight:bold;font-stretch:normal;font-family:Calibri;-inkscape-font-specification:'Calibri Bold Italic'"
   id="tspan1">It</tspan></tspan></text>
    <text
       xml:space="preserve"
       style="font-style:italic;font-variant:normal;font-weight:normal;font-stretch:normal;font-size:133.333px;font-family:Calibri;-inkscape-font-specification:'Calibri Italic';fill:#000000"
       x="463.92755"
       y="278.40579"
       id="text15"><tspan
         sodipodi:role="line"
         id="tspan15"
         x="463.92755"
         y="278.40579" /></text>
    <text
       xml:space="preserve"
       style="font-style:italic;font-variant:normal;font-weight:normal;font-stretch:normal;font-size:146.667px;font-family:Calibri;-inkscape-font-specification:'Calibri Italic';fill:#000000"
       x="646.49274"
       y="162.6087"
       id="text16"><tspan
         sodipodi:role="line"
         id="tspan16"
         x="646.49274"
         y="162.6087" /></text>
  </g>
</svg>
