<?xml version="1.0" encoding="UTF-8" standalone="no"?>
<svg
   version="1.1"
   width="512"
   height="256"
   id="svg3"
   sodipodi:docname="driveit-export.svg"
   inkscape:version="1.3.2 (091e20e, 2023-11-25, custom)"
   xmlns:inkscape="http://www.inkscape.org/namespaces/inkscape"
   xmlns:sodipodi="http://sodipodi.sourceforge.net/DTD/sodipodi-0.dtd"
   xmlns="http://www.w3.org/2000/svg"
   xmlns:svg="http://www.w3.org/2000/svg">
  <sodipodi:namedview
     id="namedview3"
     pagecolor="#ffffff"
     bordercolor="#000000"
     borderopacity="0.25"
     inkscape:showpageshadow="2"
     inkscape:pageopacity="0.0"
     inkscape:pagecheckerboard="0"
     inkscape:deskcolor="#d1d1d1"
     showguides="true"
     inkscape:zoom="2.0294118"
     inkscape:cx="126.14493"
     inkscape:cy="106.1884"
     inkscape:window-width="2560"
     inkscape:window-height="1369"
     inkscape:window-x="-8"
     inkscape:window-y="-8"
     inkscape:window-maximized="1"
     inkscape:current-layer="svg3" />
  <defs
     id="defs1" />
  <path
     id="path25"
     style="display:inline"
     d="M 99.203125 13.556641 C 97.117415 13.603321 95.094359 14.262193 93.607422 15.609375 L 76.658203 30.351562 C 72.075812 28.976924 66.880451 31.697951 64.882812 35.763672 L 53.773438 58.373047 C 54.717619 58.836957 59.809964 61.266761 60.552734 61.640625 C 59.781175 63.23363 56.46972 69.904436 55.810547 71.232422 C 54.997177 72.897595 55.754173 73.196897 61.287109 75.966797 C 66.820047 78.736706 67.222049 78.866107 68.023438 77.244141 C 69.201986 74.80149 71.375588 70.448878 72.728516 67.695312 L 95.226562 78.740234 L 117.72852 89.806641 L 113.06836 99.390625 C 112.28683 100.89432 113.81518 101.9009 117.68164 103.8418 C 118.01597 104.12373 118.3827 104.39949 118.83398 104.66016 C 120.8253 105.88212 122.71206 107.26616 124.61523 108.61914 C 126.38886 109.78922 127.8113 111.37129 129.25781 112.90625 C 130.73883 114.68898 132.21825 116.52945 133.17773 118.66016 C 133.42844 119.2169 133.61391 119.8008 133.83203 120.37109 C 134.00668 121.11784 134.35271 122.35604 134.32422 124.67383 C 134.23412 128.2851 133.11648 131.38497 132.24609 133.28711 C 130.91079 136.20533 128.97867 138.99407 126.94727 141.47852 C 118.29542 152.05979 109.86097 156.39825 98.341797 164.375 C 60.051184 185.39949 60.297788 185.85952 41.642578 197.28906 C 33.505384 202.15507 84.947506 205.39104 89.871094 202.08984 C 100.2089 194.9954 117.7498 182.4923 134.05664 167.42578 C 137.97821 162.9095 142.36077 158.75485 145.82227 153.87695 C 151.53138 145.83171 154.88255 136.49903 153.41406 126.63672 C 153.02903 124.05076 151.99915 121.9526 150.99023 119.64062 C 150.6702 119.02286 150.3674 118.39517 150.0293 117.78711 C 148.80642 115.58785 147.26681 113.56573 145.60938 111.67969 C 144.10337 110.04288 142.51826 108.48657 140.73047 107.1543 C 138.96631 105.6218 137.11014 104.22167 135.11719 102.99609 C 133.18835 101.72278 130.44383 100.20595 128.21875 99.275391 L 129.94336 95.796875 L 136.6875 99.111328 L 147.79492 76.501953 C 149.79256 72.436232 148.76482 66.655323 144.88281 63.871094 L 146.19336 41.447266 C 146.48636 37.791874 143.85633 34.118392 140.45117 32.445312 L 104.24609 14.658203 C 102.96919 14.030808 101.53544 13.660996 100.09961 13.574219 C 99.800477 13.556139 99.501082 13.549971 99.203125 13.556641 z M 99.439453 20.271484 C 99.964855 20.261374 100.4934 20.385786 100.99219 20.630859 L 119.34375 29.658203 L 137.70312 38.667969 C 139.03503 39.322383 139.82215 40.664827 139.44727 42.384766 L 137.66406 60.363281 L 111.61133 47.537109 C 111.59873 47.530909 113.88398 43.227364 111.20312 41.910156 L 93.449219 33.185547 C 90.717194 31.843203 88.765351 36.32811 88.746094 36.324219 L 83.847656 33.921875 L 96.990234 21.523438 C 97.697418 20.68082 98.563777 20.288327 99.439453 20.271484 z M 106.44336 25.177734 C 104.36394 25.195154 102.22852 26.5759 101.11328 28.845703 C 99.626299 31.872109 100.50207 35.362095 103.06445 36.621094 C 105.62506 37.879209 108.92512 36.442421 110.41211 33.416016 C 111.89909 30.389611 111.02545 26.89093 108.46484 25.632812 C 107.82424 25.318064 107.1365 25.171929 106.44336 25.177734 z M 231.25977 89.996094 C 229.82747 89.996094 228.61003 90.1148 227.60742 90.353516 C 226.60482 90.544487 225.76997 90.951605 225.10156 91.572266 C 224.4809 92.145182 223.95508 92.883897 223.52539 93.791016 C 223.0957 94.650391 222.73763 95.749132 222.45117 97.085938 C 222.21246 98.422744 222.11827 99.544056 222.16602 100.45117 C 222.21372 101.35829 222.45117 102.09896 222.88086 102.67188 C 223.31055 103.19704 223.9796 103.57964 224.88672 103.81836 C 225.79384 104.05707 226.93967 104.17578 228.32422 104.17578 C 229.75651 104.17578 230.97396 104.05707 231.97656 103.81836 C 232.97917 103.57964 233.81402 103.19704 234.48242 102.67188 C 235.15083 102.09896 235.67665 101.35829 236.05859 100.45117 C 236.48828 99.544056 236.82183 98.422744 237.06055 97.085938 C 237.34701 95.749132 237.46766 94.650391 237.41992 93.791016 C 237.37222 92.883897 237.10829 92.145182 236.63086 91.572266 C 236.20117 90.951605 235.53407 90.544487 234.62695 90.353516 C 233.76758 90.1148 232.64431 89.996094 231.25977 89.996094 z M 402.63477 91.929688 C 400.82053 91.929688 399.2921 92.001297 398.05078 92.144531 C 396.8572 92.240021 395.8546 92.40777 395.04297 92.646484 C 394.27908 92.8852 393.68359 93.194227 393.25391 93.576172 C 392.87196 93.958116 392.65712 94.387804 392.60938 94.865234 L 375.0625 182.52148 C 374.91927 182.99892 374.9683 183.4286 375.20703 183.81055 C 375.44575 184.19249 375.898 184.50347 376.56641 184.74219 C 377.23481 184.9809 378.14323 185.14865 379.28906 185.24414 C 380.48264 185.38737 382.00912 185.45898 383.87109 185.45898 C 385.68533 185.45898 387.21376 185.38738 388.45508 185.24414 C 389.6964 185.14864 390.699 184.9809 391.46289 184.74219 C 392.27452 184.50347 392.87196 184.19249 393.25391 183.81055 C 393.63585 183.4286 393.87326 182.99892 393.96875 182.52148 L 411.44336 94.865234 C 411.53886 94.387804 411.46726 93.958116 411.22852 93.576172 C 411.03754 93.194227 410.58333 92.8852 409.86719 92.646484 C 409.19878 92.40777 408.2678 92.240017 407.07422 92.144531 C 405.92838 92.001302 404.44899 91.929687 402.63477 91.929688 z M 441.87891 99.019531 C 440.11241 99.019531 438.63303 99.091141 437.43945 99.234375 C 436.29362 99.329865 435.33811 99.520182 434.57422 99.806641 C 433.85807 100.04536 433.30968 100.35634 432.92773 100.73828 C 432.59353 101.12023 432.37869 101.54991 432.2832 102.02734 L 429.41797 116.2793 L 421.75586 116.2793 C 420.89648 116.2793 420.15582 116.73155 419.53516 117.63867 C 418.9145 118.54579 418.41319 119.64454 418.03125 120.93359 C 417.64931 122.17491 417.36285 123.46397 417.17188 124.80078 C 417.02866 126.08985 416.95703 127.13954 416.95703 127.95117 C 416.95703 129.09701 417.10026 129.88477 417.38672 130.31445 C 417.67318 130.6964 418.12739 130.88867 418.74805 130.88867 L 426.48242 130.88867 L 420.25195 162.04102 C 420.10872 162.66168 419.96549 163.37782 419.82227 164.18945 C 419.72677 164.95334 419.60807 165.71658 419.46484 166.48047 C 419.36934 167.24436 419.29774 167.98503 419.25 168.70117 C 419.2023 169.36958 419.17773 169.96506 419.17773 170.49023 C 419.17773 173.35482 419.53581 175.78971 420.25195 177.79492 C 421.01584 179.80013 422.13715 181.44726 423.61719 182.73633 C 425.09722 184.02539 426.91211 184.95833 429.06055 185.53125 C 431.25672 186.15191 433.78777 186.46094 436.65234 186.46094 C 437.98915 186.46094 439.3253 186.36674 440.66211 186.17578 C 441.99892 186.03255 443.24088 185.81771 444.38672 185.53125 C 445.5803 185.24479 446.60547 184.90929 447.46484 184.52734 C 448.32422 184.1454 448.96875 183.74023 449.39844 183.31055 C 449.82813 182.88086 450.23524 182.23633 450.61719 181.37695 C 450.99913 180.46983 451.33268 179.4898 451.61914 178.43945 C 451.95334 177.34136 452.21528 176.22005 452.40625 175.07422 C 452.59722 173.92838 452.69336 172.90126 452.69336 171.99414 C 452.69336 171.18251 452.55013 170.60959 452.26367 170.27539 C 452.02496 169.89345 451.71398 169.70312 451.33203 169.70312 C 450.95009 169.70312 450.54492 169.79922 450.11523 169.99023 C 449.68555 170.13346 449.15972 170.32378 448.53906 170.5625 C 447.96615 170.75347 447.27452 170.94379 446.46289 171.13477 C 445.65126 171.27799 444.67318 171.34961 443.52734 171.34961 C 441.56989 171.34961 440.13759 170.91992 439.23047 170.06055 C 438.32335 169.15343 437.86914 167.74566 437.86914 165.83594 C 437.86914 165.21528 437.91624 164.42752 438.01172 163.47266 C 438.15495 162.47005 438.29818 161.61068 438.44141 160.89453 L 444.45703 130.88867 L 458.42188 130.88867 C 458.94705 130.88867 459.42578 130.67383 459.85547 130.24414 C 460.3329 129.76671 460.73806 129.19379 461.07227 128.52539 C 461.45421 127.80924 461.78776 127.02149 462.07422 126.16211 C 462.36068 125.30273 462.57552 124.44336 462.71875 123.58398 C 462.90972 122.72462 463.05295 121.93685 463.14844 121.2207 C 463.24394 120.45681 463.29297 119.83485 463.29297 119.35742 C 463.29297 118.35482 463.14974 117.59158 462.86328 117.06641 C 462.57682 116.54123 462.02648 116.2793 461.21484 116.2793 L 447.39453 116.2793 L 450.25781 102.02734 C 450.35331 101.54991 450.28171 101.12023 450.04297 100.73828 C 449.852 100.35634 449.44683 100.04536 448.82617 99.806641 C 448.20551 99.520182 447.32162 99.329861 446.17578 99.234375 C 445.02995 99.091146 443.59765 99.019531 441.87891 99.019531 z M 70.355469 103.75781 C 66.844975 103.79251 63.496725 104.1171 63.707031 104.72656 C 64.127644 105.94549 65.408299 110.18309 65.416016 112.5957 C 65.425416 115.53919 64.763752 118.34025 63.029297 120.85352 C 61.877035 122.52315 59.645503 125.05162 58.455078 126.57031 C 56.508494 129.10643 54.253506 131.3332 52.060547 133.74609 C 49.4143 136.55613 46.730282 139.33148 44.123047 142.17773 C 41.497489 145.044 32.175496 151.55756 30.328125 152.79297 C 25.350403 155.71875 61.680318 154.85424 63.539062 152.81055 C 68.824378 146.87432 72.854658 142.05005 76.6875 135.18555 C 78.091886 132.67033 79.138127 130.65342 80.066406 127.99805 C 80.919802 125.55686 81.312544 123.3382 81.634766 121.32227 C 82.459252 116.16391 81.571774 110.74949 79.068359 106.16797 C 78.752584 105.59007 78.338051 105.07133 77.972656 104.52344 C 77.538401 103.97774 73.865962 103.72307 70.355469 103.75781 z M 197.38672 115.5625 C 195.52474 115.5625 193.61567 115.96766 191.6582 116.7793 C 189.74849 117.59093 187.90907 118.68967 186.14258 120.07422 C 184.37608 121.41103 182.72895 122.98654 181.20117 124.80078 C 179.72114 126.61502 178.43208 128.50153 177.33398 130.45898 L 179.69727 118.71289 C 179.74497 118.37869 179.72245 118.06966 179.62695 117.7832 C 179.53145 117.49674 179.2921 117.25738 178.91016 117.06641 C 178.57595 116.87543 178.07465 116.75673 177.40625 116.70898 C 176.78559 116.61348 175.97331 116.56445 174.9707 116.56445 C 174.01584 116.56445 173.18099 116.61355 172.46484 116.70898 C 171.79644 116.75678 171.22352 116.87543 170.74609 117.06641 C 170.26866 117.25738 169.91059 117.49674 169.67188 117.7832 C 169.43317 118.06966 169.28993 118.37869 169.24219 118.71289 L 156.42383 183.23828 C 156.32833 183.62023 156.32833 183.95378 156.42383 184.24023 C 156.56706 184.47895 156.82899 184.69575 157.21094 184.88672 C 157.64063 185.07769 158.21354 185.22092 158.92969 185.31641 C 159.69358 185.41191 160.67167 185.45898 161.86523 185.45898 C 163.01107 185.45898 163.96658 185.41188 164.73047 185.31641 C 165.5421 185.22091 166.18663 185.07769 166.66406 184.88672 C 167.14149 184.69575 167.49957 184.47895 167.73828 184.24023 C 167.977 183.95378 168.14475 183.62023 168.24023 183.23828 L 173.89648 154.52148 C 174.70812 150.55882 175.95009 146.88194 177.62109 143.49219 C 179.33985 140.10243 181.22634 137.16624 183.2793 134.68359 C 185.33224 132.20096 187.40907 130.26736 189.50977 128.88281 C 191.6582 127.45052 193.54275 126.73437 195.16602 126.73438 C 196.12087 126.73438 196.95768 126.83048 197.67383 127.02148 C 198.38997 127.16471 199.00998 127.35503 199.53516 127.59375 C 200.10807 127.83247 200.60937 128.04731 201.03906 128.23828 C 201.51649 128.38151 201.94619 128.45312 202.32812 128.45312 C 202.71007 128.45312 203.04362 128.23828 203.33008 127.80859 C 203.66428 127.37891 203.97526 126.85308 204.26172 126.23242 C 204.54818 125.56402 204.78754 124.84787 204.97852 124.08398 C 205.16949 123.3201 205.31272 122.58138 205.4082 121.86523 C 205.5037 121.1491 205.5753 120.52713 205.62305 120.00195 C 205.71855 119.42904 205.76563 119.04839 205.76562 118.85742 C 205.76562 118.23676 205.6224 117.78255 205.33594 117.49609 C 205.04948 117.20964 204.61979 116.97027 204.04688 116.7793 C 203.52171 116.54058 202.90169 116.35026 202.18555 116.20703 C 201.4694 116.01606 200.68163 115.87283 199.82227 115.77734 C 199.01063 115.63411 198.19835 115.5625 197.38672 115.5625 z M 345.12891 115.5625 C 340.45008 115.5625 336.24739 116.30317 332.52344 117.7832 C 328.79947 119.26324 325.50521 121.2194 322.64062 123.6543 C 319.82379 126.08919 317.38889 128.90668 315.33594 132.10547 C 313.28298 135.30426 311.61132 138.64561 310.32227 142.13086 C 309.0332 145.61611 308.07964 149.14973 307.45898 152.73047 C 306.88607 156.26346 306.59961 159.58224 306.59961 162.68555 C 306.59961 166.69596 307.12348 170.18056 308.17383 173.14062 C 309.22418 176.1007 310.79969 178.58268 312.90039 180.58789 C 315.04883 182.54536 317.7231 184.00217 320.92188 184.95703 C 324.12066 185.91189 327.84461 186.39062 332.09375 186.39062 C 334.48091 186.39062 336.8687 186.2474 339.25586 185.96094 C 341.64302 185.67448 343.83854 185.31641 345.84375 184.88672 C 347.84896 184.40929 349.56771 183.90603 351 183.38086 C 352.48004 182.80794 353.50716 182.23503 354.08008 181.66211 C 354.46202 181.23242 354.79557 180.70855 355.08203 180.08789 C 355.41623 179.46723 355.68012 178.8227 355.87109 178.1543 C 356.06207 177.43815 356.2053 176.74458 356.30078 176.07617 C 356.39628 175.40777 356.44336 174.83485 356.44336 174.35742 C 356.44336 173.7845 356.32465 173.35482 356.08594 173.06836 C 355.89497 172.73416 355.58398 172.56836 355.1543 172.56836 C 354.72461 172.56836 353.93684 172.80577 352.79102 173.2832 C 351.64518 173.71289 350.1658 174.19162 348.35156 174.7168 C 346.58507 175.24197 344.48373 175.74327 342.04883 176.2207 C 339.61393 176.65039 336.86806 176.86523 333.8125 176.86523 C 328.51302 176.86523 324.67036 175.59874 322.2832 173.06836 C 319.9438 170.53797 318.77344 166.88563 318.77344 162.11133 C 318.77344 160.82226 318.82054 159.43902 318.91602 157.95898 C 319.05924 156.47896 319.29861 154.95052 319.63281 153.375 L 327.22461 153.375 C 334.29058 153.375 340.3533 152.8737 345.41406 151.87109 C 350.47483 150.86849 354.62847 149.4362 357.875 147.57422 C 361.12153 145.71224 363.50933 143.46766 365.03711 140.8418 C 366.56489 138.21593 367.32813 135.25717 367.32812 131.96289 C 367.32812 130.05317 366.92296 128.14215 366.11133 126.23242 C 365.2997 124.27495 363.98611 122.50912 362.17188 120.93359 C 360.40539 119.35808 358.11372 118.06901 355.29688 117.06641 C 352.52778 116.0638 349.13932 115.5625 345.12891 115.5625 z M 225.88867 116.56445 C 224.69509 116.56445 223.69249 116.61355 222.88086 116.70898 C 222.11697 116.80448 221.49696 116.9477 221.01953 117.13867 C 220.5421 117.32964 220.18403 117.56706 219.94531 117.85352 C 219.7066 118.13997 219.56337 118.45095 219.51562 118.78516 L 206.69727 183.23828 C 206.60177 183.62023 206.60177 183.95378 206.69727 184.24023 C 206.84049 184.47895 207.10244 184.69575 207.48438 184.88672 C 207.91406 185.07769 208.48699 185.22092 209.20312 185.31641 C 209.96701 185.41191 210.94509 185.45898 212.13867 185.45898 C 213.28451 185.45898 214.24002 185.41188 215.00391 185.31641 C 215.81554 185.22091 216.46007 185.07769 216.9375 184.88672 C 217.41493 184.69575 217.773 184.47895 218.01172 184.24023 C 218.25043 183.95378 218.41819 183.62023 218.51367 183.23828 L 231.33203 118.78516 C 231.37973 118.45095 231.33268 118.13997 231.18945 117.85352 C 231.09395 117.56706 230.83008 117.32964 230.40039 117.13867 C 230.01845 116.9477 229.44553 116.80447 228.68164 116.70898 C 227.96549 116.61348 227.03451 116.56445 225.88867 116.56445 z M 250.52539 116.56445 C 249.28407 116.56445 248.28147 116.61355 247.51758 116.70898 C 246.80143 116.75678 246.22852 116.87543 245.79883 117.06641 C 245.36914 117.25738 245.05816 117.51931 244.86719 117.85352 C 244.67622 118.18772 244.58008 118.66645 244.58008 119.28711 L 244.58008 120.43164 C 244.62778 120.81359 244.67688 121.26779 244.72461 121.79297 L 254.24805 182.88086 C 254.29575 183.35829 254.41645 183.76345 254.60742 184.09766 C 254.84614 184.43186 255.20421 184.69575 255.68164 184.88672 C 256.20681 185.07769 256.92296 185.22092 257.83008 185.31641 C 258.7372 185.41191 259.93012 185.45898 261.41016 185.45898 C 262.4605 185.45898 263.36697 185.43452 264.13086 185.38672 C 264.89475 185.33902 265.5638 185.22027 266.13672 185.0293 C 266.75738 184.88607 267.2832 184.67122 267.71289 184.38477 C 268.14258 184.09831 268.52322 183.69119 268.85742 183.16602 C 272.67687 178.43945 276.18598 173.54709 279.38477 168.48633 C 282.63129 163.37781 285.59202 158.19706 288.26562 152.94531 C 290.98698 147.64584 293.44639 142.34636 295.64258 137.04688 C 297.8865 131.69966 299.89171 126.4247 301.6582 121.2207 C 301.84918 120.69553 302.01497 120.19423 302.1582 119.7168 C 302.30143 119.19162 302.37305 118.69032 302.37305 118.21289 C 302.37305 117.92643 302.27885 117.68707 302.08789 117.49609 C 301.94466 117.25738 301.6582 117.08963 301.22852 116.99414 C 300.84657 116.85091 300.29622 116.75673 299.58008 116.70898 C 298.86393 116.61348 297.93294 116.56445 296.78711 116.56445 C 295.54579 116.56445 294.49609 116.61355 293.63672 116.70898 C 292.82509 116.75678 292.15603 116.87543 291.63086 117.06641 C 291.15343 117.20964 290.77279 117.449 290.48633 117.7832 C 290.24761 118.06966 290.05534 118.42773 289.91211 118.85742 C 288.05013 124.49111 286.21268 129.64736 284.39844 134.32617 C 282.63194 139.005 280.74545 143.46766 278.74023 147.7168 C 276.73503 151.96592 274.56402 156.09701 272.22461 160.10742 C 269.8852 164.0701 267.30708 168.17469 264.49023 172.42383 L 264.13086 172.85352 L 264.13086 171.99414 L 256.39648 118.85742 C 256.34878 118.42773 256.25456 118.06966 256.11133 117.7832 C 255.9681 117.449 255.68164 117.20964 255.25195 117.06641 C 254.87001 116.87543 254.29709 116.75673 253.5332 116.70898 C 252.76931 116.61348 251.76671 116.56445 250.52539 116.56445 z M 344.19727 124.87305 C 347.73025 124.87305 350.4516 125.63628 352.36133 127.16406 C 354.27105 128.6441 355.22656 130.60221 355.22656 133.03711 C 355.22656 134.61263 354.79688 136.11653 353.9375 137.54883 C 353.12587 138.98112 351.69358 140.24566 349.64062 141.34375 C 347.63542 142.3941 344.93664 143.22895 341.54688 143.84961 C 338.20487 144.47027 334.0267 144.78125 329.01367 144.78125 L 321.70898 144.78125 C 322.52062 142.10764 323.57226 139.57661 324.86133 137.18945 C 326.19814 134.75456 327.77365 132.63063 329.58789 130.81641 C 331.44987 129.00217 333.57378 127.56988 335.96094 126.51953 C 338.34809 125.42144 341.09396 124.87305 344.19727 124.87305 z " />
</svg>
