<?xml version="1.0" encoding="utf-8"?>
<svg version="1.1" width="289" height="289">
  <defs>
    <mask id="window">
      <rect width="100%" height="100%" fill="white"/>
      <path fill-rule="evenodd" clip-rule="evenodd" fill="#000000" d="M143.481,92.794l29.039,0.023l-6.328-16.923
	c-0.422-1.709-1.72-2.566-3.204-2.566l-20.453,0.009l-20.45-0.009c-1.482,0-2.778,0.857-3.199,2.566l-6.328,16.923l5.455-0.004
	c0.019-0.005-0.206-4.89,2.838-4.89h19.781C143.619,87.923,143.467,92.794,143.481,92.794"/>
    </mask>
  </defs>
  <path fill-rule="evenodd" clip-rule="evenodd" mask="url(#window)" d="M145.23,150.899c-5.246,1.648-10.618,5.105-11.213,11.063
	c-1.007,10.16,10.635,13.616,18.239,15.767c9.532,2.684,19.42,4.412,28.699,7.935c4.777,1.808,9.953,4.225,13.129,8.412
	c4.314,5.687,2.773,14.066-2.014,19.111c-5.246,5.513-10.487,11.026-15.72,16.544c-2.07-2.07-4.15-4.141-6.216-6.211
	c0.558,0.074,2.445-1.935,2.839-2.258c2.37-1.958,4.688-3.973,6.928-6.07c3.981-3.72,12.487-11.036,7.972-16.947
	c-5.873-6.154-16.179-7.874-24.08-9.817c-8.146-2.005-16.894-3.64-24.495-7.288c-11.881-5.696-16.558-20.38-7.377-30.755
	c3.262-3.682,7.482-5.551,12.12-6.909c7.813-2.281,15.673-4.174,23.57-6.089v-9.354l-25.076-0.009l-25.064,0.009
	c0,3.068,1.581,12.071-1.579,13.912c-4.316,2.506-10.96,2.843-15.79,3.92c-6.529,1.457-13.042,2.993-19.413,5.035
	c-7.251,2.281-14.666,9.087-9.827,17.331c2.724,4.646,7.684,6.702,12.6,8.244c6.293,1.967,12.71,3.498,19.094,5.082
	c9.853,2.449,30.348,6.628,29.605,20.708c-0.525,9.948-11.195,17.831-17.441,24.412c-0.97,1.017-1.932,2.038-2.911,3.055
	c-2.068-2.07-4.146-4.141-6.211-6.211c0.925,0.121,4.033-3.261,4.691-3.813c3.246-2.764,6.445-5.63,9.333-8.769
	c2.489-2.707,6.398-7.199,4.672-11.143c-2.073-4.755-9.401-6.909-13.891-8.333c-11.012-3.504-23.561-4.529-34.032-9.546
	c-4.033-1.939-7.511-4.085-10.354-7.606c-5.359-6.624-5.382-16.329,0.175-22.84c2.878-3.372,6.342-5.349,10.366-7.082
	c8.504-3.644,18.395-4.941,27.341-7.208c1.007-1.344-0.03-7.073-0.04-8.843c0-0.67-6.459-0.314-7.511-0.314v-25.19
	c0-4.53,3.464-9.265,8.183-10.052l8.71-20.704c1.354-3.41,5.335-5.546,9.129-5.546h40.339c3.794,0,7.775,2.136,9.124,5.546
	l8.713,20.704c4.712,0.787,8.183,5.522,8.183,10.052v25.19h-7.513l-0.038,10.825c-0.023,4.721-7.911,4.984-10.983,5.667
	C161.826,146.394,153.418,148.305,145.23,150.899"/>
  <path fill-rule="evenodd" clip-rule="evenodd" d="M130.996,74.522c2.853,0,5.181,2.754,5.181,6.126s-2.328,6.117-5.181,6.117
	c-2.855,0-5.181-2.745-5.181-6.117S128.141,74.522,130.996,74.522"/>
</svg>
